/* XPM */
static char *_f507db534b34339822789b2073c780c[] = {
/* columns rows colors chars-per-pixel */
"16 16 12 1 ",
"  c blue",
". c #2C33FF",
"X c #5499FF",
"o c #5599FF",
"O c #559AFF",
"+ c #AAC4FF",
"@ c #D5F6FF",
"# c #D6F7FF",
"$ c #DDFFFF",
"% c #E3FFFF",
"& c #E4FFFF",
"* c None",
/* pixels */
"*******oo*******",
"*****oooooo*****",
"***oooooooooo***",
"*ooooo****ooooo*",
"oooo********oooo",
"ooo***@@@@***ooo",
"ooo**@@@@$+**ooo",
"ooo**@@#+. **ooo",
"ooo**@@&   **ooo",
"oo***@@%   **ooo",
"oXo***@%  ***ooo",
"oooo********oooo",
"*ooooo****ooooo*",
"***oooooooooo***",
"*****oooooo*****",
"*******oo*******"
};
