/* XPM */
static char *_6cc9a5201d94cf1c667967289586348[] = {
/* columns rows colors chars-per-pixel */
"64 64 3 1 ",
"  c #FB3369",
". c #6A78CD",
"X c None",
/* pixels */
"XXXXXXXXXXXXXXXXXXXXXXXXXXXXXX     XXXXXXXXXXXXXXXXXXXXXXXXXXXXX",
"XXXXXXXXXXXXXXXXXXXXXXXXXXXXXX   X   XXXXXXXXXXXXXXXXXXXXXXXXXXX",
"XXXXXXXXXXXXXXXXXXXXXXXXXXXX   X   X  XXXXXXXXXXXXXXXXXXXXXXXXXX",
"XXXXXXXXXXXXXXXXXXXXXXXXXX   X   X   X  XXXXXXXXXXXXXXXXXXXXXXXX",
"XXXXXXXXXXXXXXXXXXXXXXXX                  XXXXXXXXXXXXXXXXXXXXXX",
"XXXXXXXXXXXXXXXXXXXXXXXX   X   X   X   X   XXXXXXXXXXXXXXXXXXXXX",
"XXXXXXXXXXXXXXXXXXXXXX   X   X   X   X   X   XXXXXXXXXXXXXXXXXXX",
"XXXXXXXXXXXXXXXXXXXXX  X   X   X   X   X   XX  XXXXXXXXXXXXXXXXX",
"XXXXXXXXXXXXXXXXXXX  XX      X       X   X  XX  XXXXXXXXXXXXXXXX",
"XXXXXXXXXXXXXXXXXX  XX  X    X            XX  XX  XXXXXXXXXXXXXX",
"XXXXXXXXXXXXXXXX  XX  XX  XX   X   X   XX  XX  XXX  XXXXXXXXXXXX",
"XXXXXXXXXXXXXXX  X   X   XX  X   X   XX  XX  XX  XX  XXXXXXXXXXX",
"XXXXXXXXXXXXX  XX  XX  XX  XX  X   X  XX  XXX  XX  XX  XXXXXXXXX",
"XXXXXXXXXXX   X   X  XXX  XX  X     XX  XX  XX  XX  XXX  XXXXXXX",
"XXXXXXXXXX  XX  XX  XX  XX  XX  XXX  XXX  XX  XX  XX  XX  XXXXXX",
"XXXXXXXX   X  XX  XXX  X   X   XXXXXX  XX  XX  XXX  XX  XXXXXXXX",
"XXXXXXX  XX  XX  XX  XX  XX  XXXXXXXXXX  XX  XX  XX  XX  XXXXXXX",
"XXXXXX  X  XX  XX   X  XX  XXXXXXXXXXXXX  XXX  XX  XX  XXXXXXXXX",
"XXXXXX X  XX  XX  XX  XX  XXXXXXXXXXXXXXXX  XX  XX  XXXXXXXXXXXX",
"XXXXXX   X  XX   X  XX  XXXXXXXXXXXXXXXXXXXX  XX  XX XXXXXXXXXXX",
"XXXXXX     XX  XX  XX  XXXXXXXXXXXXXXXXXXXXXX  XX  XXXXXXXXXXXXX",
"XXXXXX     X  X  XX  XXXXXXXXXXXXXXXXXXXXXXXXXX  XXXXXXXXXXXXXXX",
"XXXXXX     X X  X   XXXXXXXXXXXXXXXXXXXXXXXXXXXXXXXXXXXXXXXXXXXX",
"XXXXXX     X   X  XXXXXXX.XXXXXXXXXXXX.XXXXXXXXXXXXXXXXXXXXXXXXX",
"XXXXXX     X     XXXXXXXX..XXXXXXXXXX..XXXXXXXXXXXXXXXXXXXXXXXXX",
"XXXXXX     X     XXXXXXXXX..XXXXXXXX..XXXXXXXXXXXXXXXXXXXXXXXXXX",
"XXXXXX     X     XXXXXXXXXX..XXXXXX..XXXXXXXXXXXXXXXXXXXXXXXXXXX",
"XXXXXX     X     XXXXXXXXXXX..XXXX..XXXXXXXXXXXXXXXXXXXXXXXXXXXX",
"XXXXXX     X     XXXXXXXXXXXX..XX..XXXXXXXXXXXXXXXXXXXXXXXXXXXXX",
"XXXXXX     X     XXXXXXXXXXXXX....XXXXXXXXXXXXXXXXXXXXXXXXXXXXXX",
"XXXXXX     X     XXXXXXXXXXXXXX..XXXXXXXXXXXXXXXXXXXXXXXXXXXXXXX",
"XXXXXX     X     XXXXXXXXXXXXX....XXXXXXXXXXXXXXXXXXXXXXXXXXXXXX",
"XXXXXX     X     XXXXXXXXXXXX..XX..XXXXXXXXXXXXXXXXXXXXXXXXXXXXX",
"XXXXXX     X     XXXXXXXXXXX..XXXX..XXXXXXXXXXXXXXXXXXXXXXXXXXXX",
"XXXXXX     X     XXXXXXXXXX..XXXXXX..XXXXXXXXXXXXXXXXXXXXXXXXXXX",
"XXXXXX     X     XXXXXXXXX..XXXXXXXX..XXXXXXXXXXXXXXXXXXXXXXXXXX",
"XXXXXX     X     XXXXXXXX..XXXXXXXXXX..XXXXXXXXXXXXXXXXXXXXXXXXX",
"XXXXXX     X     XXXXXXXX.XXXXXXXXXXXX..XXXXXXXXXXXXXXXXXXXXXXXX",
"XXXXXX     X     XXXXXXXXXXXXXXXXXXXXXXXXXXXXXXXXXXXXXXXXXXXXXXX",
"XXXXXX     X   X  XXXXXXXXXXXXXXXXXXXXXXXXXXXXXXXXXXXXXXXXXXXXXX",
"XXXXXX     X X XX  XXXXXXXXXXXXXXXXXXXXXXXXXXXXXXXXXXXXXXXXXXXXX",
"XXXXXX     X XX  X   XXXXXXXXXXXXXXXXXXXXXXXXXX  XXXXXXXXXXXXXXX",
"XXXXXX     X  XX  XX  XXXXXXXXXXXXXXXXXXXXXXXX  XX XXXXXXXXXXXXX",
"XXXXXX   X  XX  XX  XX  XXXXXXXXXXXXXXXXXXXX  XX  XXXXXXXXXXXXXX",
"XXXXXX X XX  XX  XX  XX  XXXXXXXXXXXXXXXXXX  XX  XX  XXXXXXXXXXX",
"XXXXXX XX  XX  XX  XX  XX  XXXXXXXXXXXXXX  XX  XX  XX  XXXXXXXXX",
"XXXXXX  XX  XX  XX   X  XX  XXXXXXXXXXX  XX  XXX  XX  XX XXXXXXX",
"XXXXXXXX  XX  XX  XX  XX  XX  XXXXXXXX  XX  XX  XX  XX  XXXXXXXX",
"XXXXXXXXX   X  XX  XX   X   X   XXXX  XX  XX  XXX  XX  XX XXXXXX",
"XXXXXXXXXXX  XX  XX  XX  XX  XX  X  XXX  XX  XX  XX  XX  XXXXXXX",
"XXXXXXXXXXXX   X   X  XXX  XX  X   XX  XX  XX  XX  XXX  XXXXXXXX",
"XXXXXXXXXXXXXX  XX  XX  XX  XX   X   XX  XXX  XX  XX  XXXXXXXXXX",
"XXXXXXXXXXXXXXXX  X   X   XX            XX  XX  XX  XXXXXXXXXXXX",
"XXXXXXXXXXXXXXXXX  XX  XX  X   X   X   X  XX  XXX  XXXXXXXXXXXXX",
"XXXXXXXXXXXXXXXXXXX  XX  X   X   X   X   XX  XX  XXXXXXXXXXXXXXX",
"XXXXXXXXXXXXXXXXXXXX  XX   X   X   X   X   XX  XXXXXXXXXXXXXXXXX",
"XXXXXXXXXXXXXXXXXXXXXX   X   X   X   X        XXXXXXXXXXXXXXXXXX",
"XXXXXXXXXXXXXXXXXXXXXX           X       X  XXXXXXXXXXXXXXXXXXXX",
"XXXXXXXXXXXXXXXXXXXXXXXX   X   X   X   X  XXXXXXXXXXXXXXXXXXXXXX",
"XXXXXXXXXXXXXXXXXXXXXXXXXX   X   X   X   XXXXXXXXXXXXXXXXXXXXXXX",
"XXXXXXXXXXXXXXXXXXXXXXXXXXXX   X   X   XXXXXXXXXXXXXXXXXXXXXXXXX",
"XXXXXXXXXXXXXXXXXXXXXXXXXXXX         XXXXXXXXXXXXXXXXXXXXXXXXXXX",
"XXXXXXXXXXXXXXXXXXXXXXXXXXXXXX   X  XXXXXXXXXXXXXXXXXXXXXXXXXXXX",
"XXXXXXXXXXXXXXXXXXXXXXXXXXXXXXXX  XXXXXXXXXXXXXXXXXXXXXXXXXXXXXX"
};
