/* XPM */
static char *_d33cf25b5754e2eb33b474c662a9575[] = {
/* columns rows colors chars-per-pixel */
"32 32 19 1 ",
"  c blue",
". c #2B32FF",
"X c #2C33FF",
"o c #5598FF",
"O c #5499FF",
"+ c #5599FF",
"@ c #559AFF",
"# c #93A9FF",
"$ c #A8C2FF",
"% c #A9C3FF",
"& c #ABC5FF",
"* c #D5F6FF",
"= c #D6F7FF",
"- c #DDFFFF",
"; c #DEFFFF",
": c #E4FFFF",
"> c #E5FFFF",
", c #E8FFFF",
"< c None",
/* pixels */
"<<<<<<<<<<<<<<<++<<<<<<<<<<<<<<<",
"<<<<<<<<<<<<<++++++<<<<<<<<<<<<<",
"<<<<<<<<<<<++++++++++<<<<<<<<<<<",
"<<<<<<<<<++++++++++++++<<<<<<<<<",
"<<<<<<<++++++++++++++++++<<<<<<<",
"<<<<<++++++++++++++++++++++<<<<<",
"<<<+++++++++++<<<<+++++++++++<<<",
"<+++++++++++<<<<<<<<+++++++++++<",
"++++++++++<<<<<<<<<<<<++++++++++",
"++++++++<<<<<<<**<<<<<<<++++++++",
"++++++<<<<<<<******<<<<<<<++++++",
"+++++<<<<<<**********<<<<<<+++++",
"+++++<<<<************-#<<<++++++",
"+++++<<<<**********-%X <<<++++++",
"+++++<<<<********-$X   <<<<+++++",
"+++++<<<<*******&.     <<<<+++++",
"+++++<<<<******>       <<<<+++++",
"+++++<<<<******:       <<<<+++++",
"+++++<<<<******:       <<<<+++++",
"+++++<<<<******:       <<<<+++++",
"+Oo++<<<<<<****>     <<<<<<+++++",
"oOOO++<<<<<<<**>   <<<<<<<++++++",
"++++++++<<<<<<<, <<<<<<<++++++++",
"++++++++++<<<<<<<<<<<<++++++++++",
"<+++++++++++<<<<<<<<+++++++++++<",
"<<<+++++++++++<<<<+++++++++++<<<",
"<<<<<++++++++++++++++++++++<<<<<",
"<<<<<<<++++++++++++++++++<<<<<<<",
"<<<<<<<<<++++++++++++++<<<<<<<<<",
"<<<<<<<<<<<++++++++++<<<<<<<<<<<",
"<<<<<<<<<<<<<++++++<<<<<<<<<<<<<",
"<<<<<<<<<<<<<<<++<<<<<<<<<<<<<<<"
};
