/* XPM */
static char *a27cf20a7b5b4bfcc2cf18caefb13318[] = {
/* columns rows colors chars-per-pixel */
"16 16 7 1 ",
"  c #FB3268",
". c #FB3368",
"X c #FA3369",
"o c #FB3369",
"O c #F8336A",
"+ c #6A77CC",
"@ c None",
/* pixels */
"@@@@@@@oo@@@@@@@",
"@@@@@@ooooo@@@@@",
"@@@@@ooooooo@@@@",
"@@@ooooo@@@@@o@@",
"@@ooo @@@@@o@@@@",
"@@ooo@@@@@@@@@@@",
"@@oo@@@@@@@@@@@@",
"@@oo@@@@+@@@@@@@",
"@@oo@@@@@@@@@@@@",
"@@oo@@@@@@@@@@@@",
"@@ooo@@@@@@@@@@@",
"@@ooooo@@@@o@@@@",
"@@@ooooooo@@@@@@",
"@@@@@oooooo@@@@@",
"@@@@@@ooooo@@@@@",
"@@@@@@@oo@@@@@@@"
};
