/* XPM */
static char *_8a475d6e21842d1b2dd9ad70c10c3ed[] = {
/* columns rows colors chars-per-pixel */
"128 128 55 1 ",
"  c blue",
". c #1F24FF",
"X c #2025FF",
"o c #2228FF",
"O c #242AFF",
"+ c #282DFF",
"@ c #282FFF",
"# c #292FFF",
"$ c #2C33FF",
"% c #2E35FF",
"& c #2E36FF",
"* c #3038FF",
"= c #5599FE",
"- c #5498FF",
"; c #5598FF",
": c #5499FF",
"> c #5599FF",
", c #5699FE",
"< c #5698FF",
"1 c #5699FF",
"2 c #559AFE",
"3 c #549AFF",
"4 c #559AFF",
"5 c #569AFF",
"6 c #A3BBFF",
"7 c #A3BCFF",
"8 c #A3BDFF",
"9 c #A4BDFF",
"0 c #A6BFFF",
"q c #A7C0FF",
"w c #A9C2FF",
"e c #A9C3FF",
"r c #AAC3FF",
"t c #ACC7FF",
"y c #ADC8FF",
"u c #AEC9FF",
"i c #AFC9FF",
"p c #AECAFF",
"a c #D4F5FF",
"s c #D4F6FF",
"d c #D5F6FF",
"f c #D5F7FF",
"g c #D6F7FF",
"h c #D7F9FF",
"j c #D9FAFF",
"k c #D9FBFF",
"l c #DAFBFF",
"z c #DAFCFF",
"x c #DDFFFF",
"c c #DFFFFF",
"v c #E3FFFF",
"b c #E4FFFF",
"n c #E9FFFF",
"m c #EAFFFF",
"M c None",
/* pixels */
"MMMMMMMMMMMMMMMMMMMMMMMMMMMMMMMMMMMMMMMMMMMMMMMMMMMMMMMMMMMMMMM14MMMMMMMMMMMMMMMMMMMMMMMMMMMMMMMMMMMMMMMMMMMMMMMMMMMMMMMMMMMMMMM",
"MMMMMMMMMMMMMMMMMMMMMMMMMMMMMMMMMMMMMMMMMMMMMMMMMMMMMMMMMMMMM>>>>>>MMMMMMMMMMMMMMMMMMMMMMMMMMMMMMMMMMMMMMMMMMMMMMMMMMMMMMMMMMMMM",
"MMMMMMMMMMMMMMMMMMMMMMMMMMMMMMMMMMMMMMMMMMMMMMMMMMMMMMMMMMM>>>>>1>>>>MMMMMMMMMMMMMMMMMMMMMMMMMMMMMMMMMMMMMMMMMMMMMMMMMMMMMMMMMMM",
"MMMMMMMMMMMMMMMMMMMMMMMMMMMMMMMMMMMMMMMMMMMMMMMMMMMMMMMMM>>>>>>1>>>>>>>MMMMMMMMMMMMMMMMMMMMMMMMMMMMMMMMMMMMMMMMMMMMMMMMMMMMMMMMM",
"MMMMMMMMMMMMMMMMMMMMMMMMMMMMMMMMMMMMMMMMMMMMMMMMMMMMMMM>>>>>>>>1>>>>>>>>>MMMMMMMMMMMMMMMMMMMMMMMMMMMMMMMMMMMMMMMMMMMMMMMMMMMMMMM",
"MMMMMMMMMMMMMMMMMMMMMMMMMMMMMMMMMMMMMMMMMMMMMMMMMMMMM>>>>>4>>>>>5>>>>>>>>>>MMMMMMMMMMMMMMMMMMMMMMMMMMMMMMMMMMMMMMMMMMMMMMMMMMMMM",
"MMMMMMMMMMMMMMMMMMMMMMMMMMMMMMMMMMMMMMMMMMMMMMMMMMM>>>>>>>>>>>>>1>>>>>>>>>>>>MMMMMMMMMMMMMMMMMMMMMMMMMMMMMMMMMMMMMMMMMMMMMMMMMMM",
"MMMMMMMMMMMMMMMMMMMMMMMMMMMMMMMMMMMMMMMMMMMMMMMMM>>>>>>>>>>>>>>1>>>>>>>>>>>>>>>MMMMMMMMMMMMMMMMMMMMMMMMMMMMMMMMMMMMMMMMMMMMMMMMM",
"MMMMMMMMMMMMMMMMMMMMMMMMMMMMMMMMMMMMMMMMMMMMMMM>>>>>>>>>>>>>>>>1>>>>>>>>>>>>>>>>>MMMMMMMMMMMMMMMMMMMMMMMMMMMMMMMMMMMMMMMMMMMMMMM",
"MMMMMMMMMMMMMMMMMMMMMMMMMMMMMMMMMMMMMMMMMMMMM>>>>>>>>>>>>>>>>>>>1>>>>>>>>>>>>>>>>>>MMMMMMMMMMMMMMMMMMMMMMMMMMMMMMMMMMMMMMMMMMMMM",
"MMMMMMMMMMMMMMMMMMMMMMMMMMMMMMMMMMMMMMMMMMM>>>>>>>>>>>>>>>>>>>>>>>>>>>>>>>>>>>>>>>>>>MMMMMMMMMMMMMMMMMMMMMMMMMMMMMMMMMMMMMMMMMMM",
"MMMMMMMMMMMMMMMMMMMMMMMMMMMMMMMMMMMMMMMMM>>>>>>>>>>>>>>>>>>>>>>11>>>>>>>>>>>>>>>>>>>>>>MMMMMMMMMMMMMMMMMMMMMMMMMMMMMMMMMMMMMMMMM",
"MMMMMMMMMMMMMMMMMMMMMMMMMMMMMMMMMMMMMMM>>>>>>>>>>>>>>>>>>>>>>44>>>>>>>>>>>>>>>>>>>>>>>>>>MMMMMMMMMMMMMMMMMMMMMMMMMMMMMMMMMMMMMMM",
"MMMMMMMMMMMMMMMMMMMMMMMMMMMMMMMMMMMMM>>>>>>>44>>>>>>>>>>>>>>>>>1>>>>>>>>>>>>>>>>>>>>>>>>>>>MMMMMMMMMMMMMMMMMMMMMMMMMMMMMMMMMMMMM",
"MMMMMMMMMMMMMMMMMMMMMMMMMMMMMMMMMMM>>>>>>>>>>>>>>>>>>>>>>>>>>>>>>>>>>>>>>>>>>>>>>>>>>>>>>>>>>MMMMMMMMMMMMMMMMMMMMMMMMMMMMMMMMMMM",
"MMMMMMMMMMMMMMMMMMMMMMMMMMMMMMMMM>>>>>>>>>>>>>>>>>;;>>>>>>>>>>>11>>>>>>>>>>>>>>>>>>>>>>>>>>>>>>MMMMMMMMMMMMMMMMMMMMMMMMMMMMMMMMM",
"MMMMMMMMMMMMMMMMMMMMMMMMMMMMMMM>>>>>>>>>>>>>>>>>>>>>>>>>>>>>>>>>>>>>>>>>>>>>>>>>>>>>>>>>>>>>>>>>>MMMMMMMMMMMMMMMMMMMMMMMMMMMMMMM",
"MMMMMMMMMMMMMMMMMMMMMMMMMMMMM>>>44>>>>>>>>>>>>>>>>>>>>>>>>>>>>>>>>>>4>>>>>>>>>>>>>>>>>>>>>>>>>>>>>>MMMMMMMMMMMMMMMMMMMMMMMMMMMMM",
"MMMMMMMMMMMMMMMMMMMMMMMMMMM>>>>>>>>>>>>>>>>>>>>>>>>>>>>>>;>>>>>>4>>>>>>>>>>>>>>>>>>>>>>>>>>>>>>>>>>>>MMMMMMMMMMMMMMMMMMMMMMMMMMM",
"MMMMMMMMMMMMMMMMMMMMMMMMM>>>>>>>>>>>>>>>>>>>>>>>>>>>>>>>>>>>>>>>>>>>>>>>>>>>>>>>>>>>>>>>>>>>>>>>>>>>>>>MMMMMMMMMMMMMMMMMMMMMMMMM",
"MMMMMMMMMMMMMMMMMMMMMMM>>>>>>>>>>>>>>>>>>>>>>>>>>>4>>>>>>>>>>>>>>>>>>>>>>>>>>>>4>>>>>>>>>>>>>>>>>>>>>>>>>MMMMMMMMMMMMMMMMMMMMMMM",
"MMMMMMMMMMMMMMMMMMMMM>>>>>>>>>>>>>>>>>>>>>>>>>>>>>>>>>>>>>>>>>>>4>>>>>>>>>>4>>>>>>>>>>>>>>>>>>>>>>>>>>>>>>>MMMMMMMMMMMMMMMMMMMMM",
"MMMMMMMMMMMMMMMMMMM>>>>>>>>>>>>>>>>>>>>>>>>>>>>>>>>>>>>>>>>>>>>MM>>>>>>>>>>>>>>>>>>>>>>>>>>>>>>>>>>>>>>>>>>>>MMMMMMMMMMMMMMMMMMM",
"MMMMMMMMMMMMMMMMM>>>>>>>>>>>>>>>>>>>>>>>>>>>>>>>>4>>>>>>>>>>>MMMMMM4>>>>4>>>>>>>>>>>>>>>>>>>>>>>>>>>>>>>>>>>>>>MMMMMMMMMMMMMMMMM",
"MMMMMMMMMMMMMMM>>>>;>>>>>>>>>>>>>>>>>>44>>>>>>>>>>>>>>>>>>>MMMMMMMMMM>>>>>>>>>>>>>>>>>>>>>>>>>>>>>>>>>>>>>>>>>>>>MMMMMMMMMMMMMMM",
"MMMMMMMMMMMMM>>>>>>>>4>>>>>>>>>>>>>>>>>>>>>>>>>>>>>>>>>>1MMMMMMMMMMMMMM>>>>>>>>>>>>>>>>>>>>>>>>>>>>>>>>>>>>>>>>>>>>MMMMMMMMMMMMM",
"MMMMMMMMMMM>>>>>>>>>>>>>>>>>>>>>>>>>>>>>>>>>>;>>>>>>>>>MMMMMMMMMMMMMMMMMM>>>>>>>>>>>>>>>>>>>>>>>>>>>>>>>>>>>>>>>>>>>>MMMMMMMMMMM",
"MMMMMMMMM>>>>>>>>;>>>>>>>>;;>>>>>>>>>>>>>>>>>>>>>>>>>MMMMMMMMMMMMMMMMMMMMMM>>>>>>>>>>>>>>>>>>>>>>>>>>>>>>>>>>>>>>>>>>>>MMMMMMMMM",
"MMMMMMM>>>>>;>>>>>>>>>>>>>>>>>>>>>>>>>>>>>>>>>>>>>>MMMMMMMMMMMMMMMMMMMMMMMMMM>>>>>>>4>>>>>>>>>>>>>>>>>>>>>>>>>>>>>>>>>>>>MMMMMMM",
"MMMMM>>>>>>>>>>>>>>>>>>>>>>>>>>>>>>>>>>>>>>>>>>>>MMMMMMMMMMMMMMMMMMMMMMMMMMMMMM>>>>>>>>>>>>>>>>>>>>>>>>>>>>>>>>>>>>>>>>>>>>MMMMM",
"MMM>>>>>>>>>>>>>>>>>>>>>>>>>>>>>>>>>>>>>>>>>>>>MMMMMMMMMMMMMMMMMMMMMMMMMMMMMMMMMM>>>>>>>>>>>>>>>>>>>>>>>>>>>>>>>>>>>>>>>>>>>>MMM",
"M>>>>>>>>>>>>>>;;>>>>>>>>>>>>>>>>>>>>>>>>>>>>MMMMMMMMMMMMMMMMMMMMMMMMMMMMMMMMMMMMMM>>>4>>>>>>>>>>>>>>>>>>>>>>>>>>>>>>>>>>>>>>>>M",
">>>>>>>;;;>>>>>>>>44>>>>>>44>>>>>>>>>>>>>>>MMMMMMMMMMMMMMMMMMMMMMMMMMMMMMMMMMMMMMMMMM>>>>>>>>>>>>>>>>>>>>>>>>>>>>>>>>>>>>>>>>>>>",
">>>>>>>>>>>>>>>>>>>>>>>>>>>>>>>>>>>>>>>>>MMMMMMMMMMMMMMMMMMMMMMMMMMMMMMMMMMMMMMMMMMMMMM>>>>>>>>>>>>>>>>>>>>>>>>>>>>>>>>>>>>>>>>>",
">>>>>>>>>>>>>>>>>>>>>>>>>>>>>>>>>>>>>>>MMMMMMMMMMMMMMMMMMMMMMMMMMMMMMMMMMMMMMMMMMMMMMMMMM>>>>>>>>>>>>>>>>>>>>>>>>>>>>>>>>>>>>>>>",
">>>>>;>>>>>>>>;>>>>>>>>>>44>>>>>>>>>>MMMMMMMMMMMMMMMMMMMMMMMMMMMMMMMMMMMMMMMMMMMMMMMMMMMMMM>>>>>>>>>>>>>>>>>>>>>>>>>>>>>>>>>>>>>",
">>>>>>>>>>>>>>>>>>>>>>>>>>>>>>>>>>>MMMMMMMMMMMMMMMMMMMMMMMMMMMMMMMMMMMMMMMMMMMMMMMMMMMMMMMMMM>>>>>>>>>>>>>>>>>>>>>>>>>>>>>>>>>>>",
">>>>>>>>>>>>>>>>>>>>>>>>>>>>>>>>>MMMMMMMMMMMMMMMMMMMMMMMMMMMMMagffMMMMMMMMMMMMMMMMMMMMMMMMMMMMM>>>>>>>>>>>>>>>>>>>>>>>>>>>>>>>>>",
">>>>>>>>>>>>>>>>>>>>>>>>>>>>>>>MMMMMMMMMMMMMMMMMMMMMMMMMMMMMfffagaffMMMMMMMMMMMMMMMMMMMMMMMMMMMMM>>>>>>>>>>>>>>>>>>>>>>>>>>>>>>>",
">>>>>>>>>>>>>>>>>>>>>>>>>>>>>MMMMMMMMMMMMMMMMMMMMMMMMMMMMMgfffagafffffMMMMMMMMMMMMMMMMMMMMMMMMMMMMM>>>>>>>>>>>>>>>>>>>>>>>>>>>>>",
">>>>44>>>>>>>>>>>>>>>>>>>>>MMMMMMMMMMMMMMMMMMMMMMMMMMMMMgagagagagagagagaMMMMMMMMMMMMMMMMMMMMMMMMMMMMM>>>>>>>>>>>>>>>>>>>>>>>>>>>",
">>>>>>>>>>>>>>>>>>>>>>>>>MMMMMMMMMMMMMMMMMMMMMMMMMMMMMagagagagagagagagaggaMMMMMMMMMMMMMMMMMMMMMMMMMMMMM>>>>>>>>>>>>>>>>>>>>>>>>>",
">>>>>>>>>>>>>>>>>>>>>>>MMMMMMMMMMMMMMMMMMMMMMMMMMMMMfffagagagagagagagagaagagMMMMMMMMMMMMMMMMMMMMMMMMMMMMM>>>>>>>>>>>>>>>>>>>>>>>",
">>>>>>>>>>>>>4>>>>>>>>MMMMMMMMMMMMMMMMMMMMMMMMMMMMfgffagagagagagagagagaggagaffMMMMMMMMMMMMMMMMMMMMMMMMMMMM>>>>>>>>>>>>>>>>>>>>>>",
">>>>>>>>>>>>>>>>>>>>>>MMMMMMMMMMMMMMMMMMMMMMMMMMgagagagagagagagagagagagaagagagafMMMMMMMMMMMMMMMMMMMMMMMMMM>>>>>>>>>>>>>>>>>>>>>>",
">>>>>>>>>>>>>>>>>>>>>>MMMMMMMMMMMMMMMMMMMMMMMMffagagagagagagagagagagagaggagagagaffMMMMMMMMMMMMMMMMMMMMMMMM>>>>>>>>>>>>>>>>>>>>>>",
"4>>>>>>>>>>>>>>>>>>>>>MMMMMMMMMMMMMMMMMMMMMMafffgagagagagagagagagagagagaagagagafffffMMMMMMMMMMMMMMMMMMMMMM>>>>>>>>>>>>>>>>>>>>>>",
">>>>>;>>>>;;;>>>;;;>>>MMMMMMMMMMMMMMMMMMMMfafaffagagagagagagagagagagagaggagagafafffffhMMMMMMMMMMMMMMMMMMMM>>>>>>>>>>>>>>>>>>>>>>",
">>;;;>>>>>>>>>>>>>>>>>MMMMMMMMMMMMMMMMMMagagagagagagagaggagagagagagagagagagagagaagagagfaMMMMMMMMMMMMMMMMMM>>>>>>>>>>>>>>>>>>>>>>",
">>>>>>>>>>>>>>>>>>>>>>MMMMMMMMMMMMMMMMffgagagagagagagagaagagagagagagagagagagagaggagagaafffMMMMMMMMMMMMMMMM>>>>>>>>>>>>>>>>>>>>>>",
">>>>>>>>;;;>>>>>>>>>;>MMMMMMMMMMMMMMMaffagagagagagagagaggagagagagagagagagagagagaafafagaafziMMMMMMMMMMMMMMM>>>>>>>>>>>>>>>>>>>>>>",
">>>>;;;>;;;;>>;;;;;;>>MMMMMMMMMMMMMMMfafgagagagagagagagaagagagagagagagagagagagagfafagafv9$ MMMMMMMMMMMMMMM>>>>>>>>>>>>>>>>>>>>>>",
">>>>>>>>>>>>>>>>>>>>>>MMMMMMMMMMMMMMMfffagagagagagagagaggagagagagagagagagagagagaffaffb9#   MMMMMMMMMMMMMMM>>>>>>>>>>>>>>>>>>>>>>",
">>>>>>>>>>>>>>>;>>>>>>MMMMMMMMMMMMMMMgafgagagagagagagagaagagagagagagagagagagagagffab9o     MMMMMMMMMMMMMMM>>>>>>>>>>>>>>>>>>>>>>",
">>>>>>>>>>;;>>>;;;;;;>MMMMMMMMMMMMMMMagaagagagagagagagaggagagagagagagagagagagagafxe.       MMMMMMMMMMMMMMM>>>>>>>>>>>>>>>>>>>>>>",
";;;;;;;;;;>>>>>>>>>>>>MMMMMMMMMMMMMMMgaggagagagagagagagaagagagagagagagagagagafgji#         MMMMMMMMMMMMMMM>>>>>>>>>>>>>>>>>>>>>>",
">>>>>>>>>>>>>>>>>>>>>>MMMMMMMMMMMMMMMfffagagagagagagagagagaggagagagafafagaffflt*           MMMMMMMMMMMMMMM>>>>>>>>>>>>>>>>>>>>>>",
">>>;;;;>>>>>;;>>>;;;>>MMMMMMMMMMMMMMMfffgagagagagagagagagagaagagagagafafagfv9%             MMMMMMMMMMMMMMM>>>>>>>>>>>>>>>>>>>>>>",
";;;>>>>;;;;;>;;;>>>>>>MMMMMMMMMMMMMMMfgaagagagagagagagagagaggagagagafaffab9#               MMMMMMMMMMMMMMM>>>>>>>>>>>>>>>>>>>>>>",
">>>>>>>>>>>>>>>>>>>>>>MMMMMMMMMMMMMMMgaggagagagagagagagagagaagagagagaffb9O                 MMMMMMMMMMMMMMM>>>>>>>>>>>>>>>>>>>>>>",
">>>>>>>>>>>>>>>>>>>;;;MMMMMMMMMMMMMMMggaagagagagagagagagagagaggagagafxeX                   MMMMMMMMMMMMMMM>>>>>>>>>>>>>>>>>>>>>>",
">>;;>>>>>>>>>>>;;>;;;;MMMMMMMMMMMMMMMfaggagagagagagagagagagagaafaggji#                     MMMMMMMMMMMMMMM>>>>>>>>>>>>>>>>>>>>>>",
";>;;>>;;;>>>>;;>>>>>>>MMMMMMMMMMMMMMMffaagagagagagagagagagagagagfli*                       MMMMMMMMMMMMMMM>>>>>>>>>>>>>>>>>>>>>>",
">>>>>>>>>>>>>>>>>>>>>>MMMMMMMMMMMMMMMfffgagagagagagagagagagagagge*                         MMMMMMMMMMMMMMM>>>>>>>>>>>>>>>>>>>>>>",
">>>>>>>>>>>>>>>>>>;;;>MMMMMMMMMMMMMMMgagagagagagagagagagagagagam                           MMMMMMMMMMMMMMM>>>>>>>>>>>>>>>>>>>>>>",
">>>>>;>>>;;;;;;;;;;;;>MMMMMMMMMMMMMMMagagagagagagagagagagagagagm                           MMMMMMMMMMMMMMM>>>>>>>>>>>>>>>>>>>>>>",
">>;;;>>>>>>>>>>>>>>>>>MMMMMMMMMMMMMMMfagagagagagagagagagagagaggm                           MMMMMMMMMMMMMMM>>>>>>>>>>>>>>>>>>>>>>",
">>>>>>>>>>>>>>>>>>>>>>MMMMMMMMMMMMMMMfgagagagagagagagagagagagaam                           MMMMMMMMMMMMMMM>>>>>>>>>>>>>>>>>>>>>>",
">>>>>>;;>;>>>>>>>>>>>-MMMMMMMMMMMMMMMfffagagagagagagagagagagagam                           MMMMMMMMMMMMMMM>>>>>>>>>>>>>>>>>>>>>>",
">>>>;;;;>;;;;>;;;;;;>>MMMMMMMMMMMMMMMfffgagagagagagagagagagagagm                           MMMMMMMMMMMMMMM>>>>>>>>>>>>>>>>>>>>>>",
";;;>>>>>>>>>>>>>1>>>>>MMMMMMMMMMMMMMMgagagagagagagagagagagagagam                           MMMMMMMMMMMMMMM>>>>>>>>>>>>>>>>>>>>>>",
":>>>:>>>>>>>>>>;>>>>>>MMMMMMMMMMMMMMMagagagagagagagagagagagagagm                           MMMMMMMMMMMMMMM>>>>>>>>>>>>>>>>>>>>>>",
">>>>>>>>>>;;;>>;;<;;;;MMMMMMMMMMMMMMMfffagagagagagagagagagagaggm                           MMMMMMMMMMMMMMM>>>>>>>>>>4>>>>>>>>>>>",
";;;;;;;;-:>>>>>>>>>>::MMMMMMMMMMMMMMMfafgagagagagagagagagagagaam                           MMMMMMMMMMMMMMM>>>>>>>>>>>>>>>>>>>>>>",
">>:>::>>>>>>>>>>>>>>>>MMMMMMMMMMMMMMMagaagagagagagagagagagagagam                           MMMMMMMMMMMMMMM>>>>>>>>>>>>>>>>>>>>>>",
">>>;;;;>>>>->;>>>>>>>>MMMMMMMMMMMMMMMgaggagagagagagagagagagagagm                           MMMMMMMMMMMMMMM>>>>>>>>>>>>>>>>>>>>>>",
";>>>:::;;;;>;;;;;>;>>>MMMMMMMMMMMMMMMfffagagagagagagagagagagagam                           MMMMMMMMMMMMMMM>>>>>>>>4>>>>>>>>>>>>>",
">>>>>>>>>>>>>>>>>>>>>>MMMMMMMMMMMMMMMgafgagagagagagagagagagagagm                           MMMMMMMMMMMMMMM>>>>>>>>>>>>>>>>>>>>>>",
">>>>>>::>>>>>>>>>>;;;;MMMMMMMMMMMMMMMMgaagagagagagagagagagagaggm                          MMMMMMMMMMMMMMMM>>>>>>>>>>>>>>>>>>>>>>",
">>;;>>>>1>>>>>>;;;:;;>MMMMMMMMMMMMMMMMMMgagagagagagagagagagagaam                        MMMMMMMMMMMMMMMMMM>>>>>>>>>>>>>>>>>>>>>>",
";;--;;;;--;;;-->>>>>>>MMMMMMMMMMMMMMMMMMMMgffagaagagagagagagagam                      MMMMMMMMMMMMMMMMMMMM>>>>>>>>>>>>>>>>>>>>>>",
">>>>>>>>>>>>>>>>:>>:>>MMMMMMMMMMMMMMMMMMMMMMffaggagagagagagagagm                    MMMMMMMMMMMMMMMMMMMMMM>>>>>>>>>>>>>>>>>>>>>>",
">>>:>>:>-;;;::::>;;>>>MMMMMMMMMMMMMMMMMMMMMMMMgaagffagagagagagam                  MMMMMMMMMMMMMMMMMMMMMMMM>>>>>>>>>>>>>>>>>>>>>>",
">>>>;;>>>>>>;;;;;;;>-:MMMMMMMMMMMMMMMMMMMMMMMMMMgaffgagagagagagm                MMMMMMMMMMMMMMMMMMMMMMMMMM;>>>>>>>>>>>>>>>>>>>>>",
">>--::>>>>:>>>>>>>>>>>MMMMMMMMMMMMMMMMMMMMMMMMMMMMfffaffagagaggm              MMMMMMMMMMMMMMMMMMMMMMMMMMMM>>>>>>>>>>>>>>>>>>>>>>",
">>>>>>>>>>>>>>>>>>>>>1>MMMMMMMMMMMMMMMMMMMMMMMMMMMMMafafgagagaam            MMMMMMMMMMMMMMMMMMMMMMMMMMMMM>>>>>>>>>>>>>>>>>>>>>>>",
">>>>>>-->:>>>>>>>>>>>>>>>MMMMMMMMMMMMMMMMMMMMMMMMMMMMMffagagagam          MMMMMMMMMMMMMMMMMMMMMMMMMMMMMM>>>>>>>>>>>>>>>>>>>>>>>>",
">:::--;;;;;;;;;;>>>>>>>>>>>MMMMMMMMMMMMMMMMMMMMMMMMMMMMMgagagagm        MMMMMMMMMMMMMMMMMMMMMMMMMMMMMM>>>>>:>>>>>>>>>>>>>>>>>4>>",
";;>>>>>>::>>::>>>>4>>>>>>>>>>MMMMMMMMMMMMMMMMMMMMMMMMMMMMMffaffm      MMMMMMMMMMMMMMMMMMMMMMMMMMMMM>>>>>>>>>>;;>>>>>>>>>>>>>>>>>",
">>>>>>>>>>>>>>>>>>>>>>>>>>>>>>>MMMMMMMMMMMMMMMMMMMMMMMMMMMMMfffm    MMMMMMMMMMMMMMMMMMMMMMMMMMMMM>>>>;>>>>;>>>>;>>>>>>>>>>>>>>>>",
">>>>>>>>>;>>>>>>>>>>>>>>>>>>>>>>>MMMMMMMMMMMMMMMMMMMMMMMMMMMMMfm  MMMMMMMMMMMMMMMMMMMMMMMMMMMMM>>>>>>>;>>>>>>>>>;:>>>>>>>>>>>>>>",
";;---:>>>>>>>>>>>>>>>4>>>>>>>>>4>>>MMMMMMMMMMMMMMMMMMMMMMMMMMMMMMMMMMMMMMMMMMMMMMMMMMMMMMMMMM>>>>>>>>>>>>>>>->>:>;>>>:;>>>>>>>>>",
">>>>>>>>>>>>>>>>>>>>>>>>>>>>>>>>>>>>>MMMMMMMMMMMMMMMMMMMMMMMMMMMMMMMMMMMMMMMMMMMMMMMMMMMMMM>>>>>>>>>>>>>>>>1>>>>->;>>>>;>>>>>>>>",
">>>>:>>>>>>>>>>>>>>>>>>>>>>>4>>>>>>>>>>MMMMMMMMMMMMMMMMMMMMMMMMMMMMMMMMMMMMMMMMMMMMMMMMMM>>>>>>>>>>>>>>>>>>>>>>>>>>;>>>:>>>>>>>>",
">M>>>>>>>>>>>>>>>>>>>>>>>>>>>>>>>>>>>>>>>MMMMMMMMMMMMMMMMMMMMMMMMMMMMMMMMMMMMMMMMMMMMMM>>>>>>>>>>>>>>>>>>>>>>>>>>>;>>>>>:>>>>>>>",
">>>>>>>>>>>>>>>>>>>>>>>>>>>>>>4>>>>>>>>>>>1MMMMMMMMMMMMMMMMMMMMMMMMMMMMMMMMMMMMMMMMMM>>>>>>>>>>>>>>>>>>>>>>>>>>>>>>>>>>>;>>>>>>>",
"M>>>>>>>>>>>>>>>>>>>>>>>>>>>>>>>>>>>>>>>>>>>>MMMMMMMMMMMMMMMMMMMMMMMMMMMMMMMMMMMMMM>>>>;>>>>;>>>>>>>>>;>>>>>>>>>>>>>>>>>>>>>>>MM",
"MMM>>>>>>>>>>>>>>>>>>>>>>>>>>>>>>>>>>>>>>>>>>>>MMMMMMMMMMMMMMMMMMMMMMMMMMMMMMMMMM>>;>>>>>>>>>;>>>>>>>>>;>>>>>>>>>>>>>>>>>>>>>MMM",
"MMMMM>>>>>>>>>>>>>>>>>>>>>>>>>>>>>>>>>>>>>>>>>>>>MMMMMMMMMMMMMMMMMMMMMMMMMMMMMM>>>>>;>>>>;>>>>;>>>>>>>>>;>>>>;>>>>>>1>>1>>1MMMMM",
"MMMMMMM>>>>>>>>>>>>>>>>>>>>>>>>>>>>>>>>>>>>>>>>>>>>MMMMMMMMMMMMMMMMMMMMMMMMMM>>>>>>>>;>>>>;>>>>;>>>>;>>>>>>>>>;>>>>;>>>>>MMMMMMM",
"MMMMMMMMM>>>>>>>>>>>>>>>>>>>>>>>>>>>>>>>>>>>>>>>>>4>>MMMMMMMMMMMMMMMMMMMMMM>>>>>>>>>>>>>>>>>>>>>;>>>>;>>>>;>>>>>>>>>>>>MMMMMMMMM",
"MMMMMMMMMMM>>>>>>>>>>>>>>>>>>>>>>>>>>>>>>>>>>>>>>>>>>>>MMMMMMMMMMMMMMMMMM>>>>>>>>>>>>>>;>>>>;>>>>;>>>>>>>>>>>>>>;>>>>MMMMMMMMMMM",
"MMMMMMMMMMMMM>>>>>>>>>>>>>>>>>>>>>>>>>>>>>>>>>>>>>>>>>>>>MMMMMMMMMMMMMM>>>>>>>>>>>>>>>>>;>>>>>>>>>;>>>>;>>>>>>>>>>>MMMMMMMMMMMMM",
"MMMMMMMMMMMMMMM>>>>>>>>>>>>>>>>>>>>>>>>>>>>>>>>>>>>>>>>>>>>MMMMMMMMMM>>>>>>>>>>>>>>>>>>>>>>>>>>>>>>;>>>>;>>>>;>>>MMMMMMMMMMMMMMM",
"MMMMMMMMMMMMMMMMM>>>>>>>>>>>>>>>>>>>>>>>>>>>>>>>>>>>>>>>>>>>>MMMMMM>>>>>>>>>>>>>>>>>>>>>>>>>>>>>>>>>>>>>>>>>>>>MMMMMMMMMMMMMMMMM",
"MMMMMMMMMMMMMMMMMMM>>>>>>>>>>>>>>>>>>>>>>>>>>>>>>>>>>>>>>>>>>>>MM>>>>>>>>>>>>>>>>>>>>>>>>>>>>>>>>>>>>>>>>>>>>MMMMMMMMMMMMMMMMMMM",
"MMMMMMMMMMMMMMMMMMMMM>>>>>>>>>>>>>>>>>>>>>>>>>>>>>>>>>>>>>>>>>>>>>>>>>>>>>>>>>>>>>>>>>>>>>>>>>>>>>>>>>>>>>>MMMMMMMMMMMMMMMMMMMMM",
"MMMMMMMMMMMMMMMMMMMMMMM>>>>>>>>>>>>>>>>>>>>>>>>>>>>>>>>>>>>>>>>>>>>>>>>>>>>>>>>>>>>>>>>>>>>>>>>>>>>>>>>>>MMMMMMMMMMMMMMMMMMMMMMM",
"MMMMMMMMMMMMMMMMMMMMMMMMM>>>>>>>>>>>>>>>>>>>>>>>>>>>>>>>>>>>>>>>>>>>>>>>>>>>>>>>>>>>>>>>>>>>>>>>>>>>>>>MMMMMMMMMMMMMMMMMMMMMMMMM",
"MMMMMMMMMMMMMMMMMMMMMMMMMMM>>>>>>>>>>>>>>>>>>>>>>>>>>>>>>>>>>>>>>>>>>>>>>>>>>>>>>>>>>>>>>>>>>>>>>>>>>MMMMMMMMMMMMMMMMMMMMMMMMMMM",
"MMMMMMMMMMMMMMMMMMMMMMMMMMMMM>>>>>>>>>>>>>>>4>>>>>>>>>>>>>>>>>>>>>>>>>>>>>>>>>>>>>>>>>>>>>>>>>>>>>>MMMMMMMMMMMMMMMMMMMMMMMMMMMMM",
"MMMMMMMMMMMMMMMMMMMMMMMMMMMMMMM>>>>>>>>>>>>>>>>>>>>>>>>>>>>>>>>>>>>>>>>>>>>>>>>>>>>>>>>>>>>>>>>>>MMMMMMMMMMMMMMMMMMMMMMMMMMMMMMM",
"MMMMMMMMMMMMMMMMMMMMMMMMMMMMMMMMM>>>>>>>>>>>>>>>>>>4>>>>>>>>>>>>>;>>>>>>>>>>>>>>>>>>>>>>>>>>>>>MMMMMMMMMMMMMMMMMMMMMMMMMMMMMMMMM",
"MMMMMMMMMMMMMMMMMMMMMMMMMMMMMMMMMMM>>>>>>>>>>>>4>>>>>>>>>>>>>>>>>>>>>>>>>>>>>>>>>>>>>>>>>>>>>MMMMMMMMMMMMMMMMMMMMMMMMMMMMMMMMMMM",
"MMMMMMMMMMMMMMMMMMMMMMMMMMMMMMMMMMMMM>>>>>>>>>>>4>>>>4>>>>>>>>>>>>>>>>>>>>>>>>>>>>>>>>>;>>>MMMMMMMMMMMMMMMMMMMMMMMMMMMMMMMMMMMMM",
"MMMMMMMMMMMMMMMMMMMMMMMMMMMMMMMMMMMMMMM>>>>>>>>>>>>>>>>>>>>>>>>>>>>>>>>>>>>>>>>>>>>>>>>>>MMMMMMMMMMMMMMMMMMMMMMMMMMMMMMMMMMMMMMM",
"MMMMMMMMMMMMMMMMMMMMMMMMMMMMMMMMMMMMMMMMM>>>>>>>>>>>>>>>>>>>>>>>>>>>>>>>>>>>>>>>>>>>>>>MMMMMMMMMMMMMMMMMMMMMMMMMMMMMMMMMMMMMMMMM",
"MMMMMMMMMMMMMMMMMMMMMMMMMMMMMMMMMMMMMMMMMMM>>>>>>>>>>>>>>>>>>>>>>>>>>>>>>>>>>>>>>>>>>MMMMMMMMMMMMMMMMMMMMMMMMMMMMMMMMMMMMMMMMMMM",
"MMMMMMMMMMMMMMMMMMMMMMMMMMMMMMMMMMMMMMMMMMMMM>>>>>>>>>>>>4>>>>>>>>>>>>>>>>>>>>>>>>>MMMMMMMMMMMMMMMMMMMMMMMMMMMMMMMMMMMMMMMMMMMMM",
"MMMMMMMMMMMMMMMMMMMMMMMMMMMMMMMMMMMMMMMMMMMMMMM>>>>>>>>>>>>>>>>>>>>>>>>>>>>>>>>>>MMMMMMMMMMMMMMMMMMMMMMMMMMMMMMMMMMMMMMMMMMMMMMM",
"MMMMMMMMMMMMMMMMMMMMMMMMMMMMMMMMMMMMMMMMMMMMMMMMM>>>>>>>>>>>>>>>>>>>>>>>>>>>>>>MMMMMMMMMMMMMMMMMMMMMMMMMMMMMMMMMMMMMMMMMMMMMMMMM",
"MMMMMMMMMMMMMMMMMMMMMMMMMMMMMMMMMMMMMMMMMMMMMMMMMMM>>>>>>>>>>>>>>>>>>>>>>>>>>MMMMMMMMMMMMMMMMMMMMMMMMMMMMMMMMMMMMMMMMMMMMMMMMMMM",
"MMMMMMMMMMMMMMMMMMMMMMMMMMMMMMMMMMMMMMMMMMMMMMMMMMMMM>>>>>>>>>>>>>>>>>>>>>>MMMMMMMMMMMMMMMMMMMMMMMMMMMMMMMMMMMMMMMMMMMMMMMMMMMMM",
"MMMMMMMMMMMMMMMMMMMMMMMMMMMMMMMMMMMMMMMMMMMMMMMMMMMMMMM>>>>>>>>>>>>>>>>>>MMMMMMMMMMMMMMMMMMMMMMMMMMMMMMMMMMMMMMMMMMMMMMMMMMMMMMM",
"MMMMMMMMMMMMMMMMMMMMMMMMMMMMMMMMMMMMMMMMMMMMMMMMMMMMMMMMM>>>>>>>>>>>>>>MMMMMMMMMMMMMMMMMMMMMMMMMMMMMMMMMMMMMMMMMMMMMMMMMMMMMMMMM",
"MMMMMMMMMMMMMMMMMMMMMMMMMMMMMMMMMMMMMMMMMMMMMMMMMMMMMMMMMMM>>>>>>>>>>MMMMMMMMMMMMMMMMMMMMMMMMMMMMMMMMMMMMMMMMMMMMMMMMMMMMMMMMMMM",
"MMMMMMMMMMMMMMMMMMMMMMMMMMMMMMMMMMMMMMMMMMMMMMMMMMMMMMMMMMMMM>>>>>>MMMMMMMMMMMMMMMMMMMMMMMMMMMMMMMMMMMMMMMMMMMMMMMMMMMMMMMMMMMMM",
"MMMMMMMMMMMMMMMMMMMMMMMMMMMMMMMMMMMMMMMMMMMMMMMMMMMMMMMMMMMMMMM>>MMMMMMMMMMMMMMMMMMMMMMMMMMMMMMMMMMMMMMMMMMMMMMMMMMMMMMMMMMMMMMM"
};
