/* XPM */
static char *_f638426f1944d22ae7befe3a7703be0[] = {
/* columns rows colors chars-per-pixel */
"32 32 6 1 ",
"  c #FB3268",
". c #FA3369",
"X c #FB3369",
"o c #6A77CC",
"O c #6A78CD",
"+ c None",
/* pixels */
"+++++++++++++++XXX++++++++++++++",
"++++++++++++++XXXXX+++++++++++++",
"++++++++++++XXXXXXXXX+++++++++++",
"+++++++++++XXXXXXXXXXX++++++++++",
"+++++++++XXXXXXXXXXXX++X++++++++",
"++++++++XXXX++XXXXXX+++++X++++++",
"++++++XXXXX+XXXXXX++++++++X+++++",
"+++++XXXX++XXXXX++XX++++++++X+++",
"+++XXXXX+XXXXX++++++X+++++++++++",
"+++XXX++XXXX++++++++++X+++++++++",
"+++XX+XXXXX++++++++++++X++++++++",
"+++XX+XXX+++++++++++++++++++++++",
"+++XX+XX+++++o++++Oo++++++++++++",
"+++XX+XX++++++O++OO+++++++++++++",
"+++XX+XX+++++++OOO++++++++++++++",
"+++XX+XX+++++++OO+++++++++++++++",
"+++XX+XX++++++O++O++++++++++++++",
"+++XX+XX+++++OO+++O+++++++++++++",
"+++XX+XX+++++o+++++O++++++++++++",
"+++XX+XX++++++++++++++++++++++++",
"+++XX+XXXX++++++++++++++++++++++",
"+++XXX+XXXX++++++++++++X++++++++",
"+++XXXX+XXXXX++++++++X++++++++++",
"++++XXXX++XXXX++++++X+++++++++++",
"+++++XXXXX+XXXXX++X+++++++++X+++",
"+++++++XXXXX+XXXXXX+++++++X+++++",
"++++++++XXXXXXXXXXXX++++X+++++++",
"++++++++++XXXXXXXXXXXX+X++++++++",
"+++++++++++XXXXXXXXXXX++++++++++",
"+++++++++++++XXXXXXXX+++++++++++",
"++++++++++++++XXXXX+++++++++++++",
"+++++++++++++++XX+++++++++++++++"
};
