/* XPM */
static char *_0caf0ceb2bc41a8f65a7e983c93375c[] = {
/* columns rows colors chars-per-pixel */
"128 128 3 1 ",
"  c #FB3369",
". c #6A78CD",
"X c None",
/* pixels */
"XXXXXXXXXXXXXXXXXXXXXXXXXXXXXXXXXXXXXXXXXXXXXXXXXXXXXXXXXXXXXXXX     XXXXXXXXXXXXXXXXXXXXXXXXXXXXXXXXXXXXXXXXXXXXXXXXXXXXXXXXXXX",
"XXXXXXXXXXXXXXXXXXXXXXXXXXXXXXXXXXXXXXXXXXXXXXXXXXXXXXXXXXXX           XXXXXXXXXXXXXXXXXXXXXXXXXXXXXXXXXXXXXXXXXXXXXXXXXXXXXXXXX",
"XXXXXXXXXXXXXXXXXXXXXXXXXXXXXXXXXXXXXXXXXXXXXXXXXXXXXXXXXXXX     XXX     XXXXXXXXXXXXXXXXXXXXXXXXXXXXXXXXXXXXXXXXXXXXXXXXXXXXXXX",
"XXXXXXXXXXXXXXXXXXXXXXXXXXXXXXXXXXXXXXXXXXXXXXXXXXXXXXXX  X       X       XXXXXXXXXXXXXXXXXXXXXXXXXXXXXXXXXXXXXXXXXXXXXXXXXXXXXX",
"XXXXXXXXXXXXXXXXXXXXXXXXXXXXXXXXXXXXXXXXXXXXXXXXXXXXXXXX      XX      XX    XXXXXXXXXXXXXXXXXXXXXXXXXXXXXXXXXXXXXXXXXXXXXXXXXXXX",
"XXXXXXXXXXXXXXXXXXXXXXXXXXXXXXXXXXXXXXXXXXXXXXXXXXXXXXXX     XXX     XXX      XXXXXXXXXXXXXXXXXXXXXXXXXXXXXXXXXXXXXXXXXXXXXXXXXX",
"XXXXXXXXXXXXXXXXXXXXXXXXXXXXXXXXXXXXXXXXXXXXXXXXXXXX                           XXXXXXXXXXXXXXXXXXXXXXXXXXXXXXXXXXXXXXXXXXXXXXXXX",
"XXXXXXXXXXXXXXXXXXXXXXXXXXXXXXXXXXXXXXXXXXXXXXXXXXXX     XXX     XXX     XXXX    XXXXXXXXXXXXXXXXXXXXXXXXXXXXXXXXXXXXXXXXXXXXXXX",
"XXXXXXXXXXXXXXXXXXXXXXXXXXXXXXXXXXXXXXXXXXXXXXXXXXXX     XX       X       XX       XXXXXXXXXXXXXXXXXXXXXXXXXXXXXXXXXXXXXXXXXXXXX",
"XXXXXXXXXXXXXXXXXXXXXXXXXXXXXXXXXXXXXXXXXXXXXXXX      X       XX      XX       X    XXXXXXXXXXXXXXXXXXXXXXXXXXXXXXXXXXXXXXXXXXXX",
"XXXXXXXXXXXXXXXXXXXXXXXXXXXXXXXXXXXXXXXXXXXXXXXX     XXX     XXX     XXXX     XX      XXXXXXXXXXXXXXXXXXXXXXXXXXXXXXXXXXXXXXXXXX",
"XXXXXXXXXXXXXXXXXXXXXXXXXXXXXXXXXXXXXXXXXXXX  X                                    X    XXXXXXXXXXXXXXXXXXXXXXXXXXXXXXXXXXXXXXXX",
"XXXXXXXXXXXXXXXXXXXXXXXXXXXXXXXXXXXXXXXXXXXX      XX     XXX     XXXX     XXX     XXX    XXXXXXXXXXXXXXXXXXXXXXXXXXXXXXXXXXXXXXX",
"XXXXXXXXXXXXXXXXXXXXXXXXXXXXXXXXXXXXXXXXXXXX     XXX     XX       XX      XX      XX       XXXXXXXXXXXXXXXXXXXXXXXXXXXXXXXXXXXXX",
"XXXXXXXXXXXXXXXXXXXXXXXXXXXXXXXXXXXXXXXXXX            X       XX       X       X      XXX   XXXXXXXXXXXXXXXXXXXXXXXXXXXXXXXXXXXX",
"XXXXXXXXXXXXXXXXXXXXXXXXXXXXXXXXXXXXXXXXX    XXX     XXX     XXXX     XXX     XX      XXXX    XXXXXXXXXXXXXXXXXXXXXXXXXXXXXXXXXX",
"XXXXXXXXXXXXXXXXXXXXXXXXXXXXXXXXXXXXXXX     XXX               X                        XXXXX    XXXXXXXXXXXXXXXXXXXXXXXXXXXXXXXX",
"XXXXXXXXXXXXXXXXXXXXXXXXXXXXXXXXXXXXXX    XXX     XX     XXX      XXX     XXX     XXX    XXXXX   XXXXXXXXXXXXXXXXXXXXXXXXXXXXXXX",
"XXXXXXXXXXXXXXXXXXXXXXXXXXXXXXXXXXXX     XXX    XXXX     XXX      XX      XX      XXXXX    XXXX    XXXXXXXXXXXXXXXXXXXXXXXXXXXXX",
"XXXXXXXXXXXXXXXXXXXXXXXXXXXXXXXXXXX    XXX     XXX    X                X       X    XXXXX   XXXXX    XXXXXXXXXXXXXXXXXXXXXXXXXXX",
"XXXXXXXXXXXXXXXXXXXXXXXXXXXXXXXXX    XXXX    XXX     XXXX     XXX     XXX     XXXX    XXXX    XXXXX   XXXXXXXXXXXXXXXXXXXXXXXXXX",
"XXXXXXXXXXXXXXXXXXXXXXXXXXXXXXX     XXX     XXX    XXXXX      X                XXXXX   XXXXX    XXXX    XXXXXXXXXXXXXXXXXXXXXXXX",
"XXXXXXXXXXXXXXXXXXXXXXXXXXXXXX    XXXX    XXX     XXXX     X      XX      XXX    XXXX    XXXXX   XXXXX    XXXXXXXXXXXXXXXXXXXXXX",
"XXXXXXXXXXXXXXXXXXXXXXXXXXXX     XXX     XXX    XXXXX    XXX      XX      XXXX    XXXXX    XXXX    XXXXX   XXXXXXXXXXXXXXXXXXXXX",
"XXXXXXXXXXXXXXXXXXXXXXXXXXX    XXXX    XXX     XXXX     XXX            X    XXXX    XXXX    XXXXX    XXXX    XXXXXXXXXXXXXXXXXXX",
"XXXXXXXXXXXXXXXXXXXXXXXXX     XXX    XXXX    XXXXX    XXX     XXX     XXX    XXXXX    XXXX    XXXX    XXXXX    XXXXXXXXXXXXXXXXX",
"XXXXXXXXXXXXXXXXXXXXXXXX    XXX     XXX     XXXX    XXXX    XXX        XXXX    XXXX    XXXXX    XXXX    XXXX    XXXXXXXXXXXXXXXX",
"XXXXXXXXXXXXXXXXXXXXXX     XXX    XXXX    XXXX     XXX     XXX    XX    XXXXX    XXXX    XXXX    XXXXX    XXXX    XXXXXXXXXXXXXX",
"XXXXXXXXXXXXXXXXXXXXX    XXX     XXX     XXXX    XXXX    XXX     XXXXX    XXXX    XXXXX    XXXX    XXXX    XXXXX    XXXXXXXXXXXX",
"XXXXXXXXXXXXXXXXXXX     XXX    XXXX    XXXX     XXX     XXX    XXXXXXXXX    XXXX    XXXX    XXXXX    XXXX    XXXX    XXXXXXXXXXX",
"XXXXXXXXXXXXXXXXXX    XXX     XXX    XXXXX    XXXX    XXX     XXXXXXXXXXX    XXXXX    XXXX    XXXX    XXXXX    XXXX  XXXXXXXXXXX",
"XXXXXXXXXXXXXXXX     XXX    XXX     XXXX     XXX    XXXX    XXXXXXXXXXXXXXX    XXXX    XXXXX    XXXX    XXXX    XXXXXXXXXXXXXXXX",
"XXXXXXXXXXXXXXX    XXX     XXX    XXXXX    XXX     XXX     XXXXXXXXXXXXXXXXXX    XXXX    XXXX    XXXXX    XXXX    XXXXXXXXXXXXXX",
"XXXXXXXXXXXXX    XXXX    XXX     XXXX     XXX    XXXX    XXXXXXXXXXXXXXXXXXXXX    XXXXX    XXXX    XXXX    XXXXX  XXXXXXXXXXXXXX",
"XXXXXXXXXXXX    XXX     XXX    XXXXX    XXX     XXX     XXXXXXXXXXXXXXXXXXXXXXXX    XXXX    XXXXX    XXXX    XXXXXXXXXXXXXXXXXXX",
"XXXXXXXXXXXX  XXXX    XXX     XXXX     XXX    XXX     XXXXXXXXXXXXXXXXXXXXXXXXXXXX    XXXX    XXXX    XXXXX   XXXXXXXXXXXXXXXXXX",
"XXXXXXXXXXXX  XX    XXXX    XXXXX    XXX     XXX    XXXXXXXXXXXXXXXXXXXXXXXXXXXXXXX    XXXXX    XXXX    XXXX XXXXXXXXXXXXXXXXXXX",
"XXXXXXXXXXXX  X    XXX     XXXX    XXXX    XXX     XXXXXXXXXXXXXXXXXXXXXXXXXXXXXXXXXX    XXXX    XXXXX   XXXXXXXXXXXXXXXXXXXXXXX",
"XXXXXXXXXXXX  X   XXX    XXXX     XXX     XXX    XXXXXXXXXXXXXXXXXXXXXXXXXXXXXXXXXXXXXX    XXXX    XXXX   XXXXXXXXXXXXXXXXXXXXXX",
"XXXXXXXXXXXX  X  XX     XXXX    XXXX    XXX     XXXXXXXXXXXXXXXXXXXXXXXXXXXXXXXXXXXXXXXX    XXXXX    XXXXXXXXXXXXXXXXXXXXXXXXXXX",
"XXXXXXXXXXXX  X  XX   XXXX     XXX     XXX    XXXXXXXXXXXXXXXXXXXXXXXXXXXXXXXXXXXXXXXXXXXX    XXXX    XXXXXXXXXXXXXXXXXXXXXXXXXX",
"XXXXXXXXXXXX  X  XX  XXXX    XXXX    XXX     XXXXXXXXXXXXXXXXXXXXXXXXXXXXXXXXXXXXXXXXXXXXXXX   XXXXX  XXXXXXXXXXXXXXXXXXXXXXXXXX",
"XXXXXXXXXXXX  X  XX  XXX    XXX    XXXX    XXXXXXXXXXXXXXXXXXXXXXXXXXXXXXXXXXXXXXXXXXXXXXXXXX    XXXXXXXXXXXXXXXXXXXXXXXXXXXXXXX",
"XXXXXXXXXXXX  X  XX  XXX  XXX     XXX     XXXXXXXXXXXXXXXXXXXXXXXXXXXXXXXXXXXXXXXXXXXXXXXXXXXXX   XXXXXXXXXXXXXXXXXXXXXXXXXXXXXX",
"XXXXXXXXXXXX  X  XX  XXX  XX    XXXX    XXXXXXXXXXXXXXXXXXXXXXXXXXXXXXXXXXXXXXXXXXXXXXXXXXXXXXXXX XXXXXXXXXXXXXXXXXXXXXXXXXXXXXX",
"XXXXXXXXXXXX  X  XX  XXX  X    XXX     XXXXXXXXXXXXXXXXXXXXXXXXXXXXXXXXXXXXXXXXXXXXXXXXXXXXXXXXXXXXXXXXXXXXXXXXXXXXXXXXXXXXXXXXX",
"XXXXXXXXXXXX  X  XX  XXX  X   XX     XXXXXXXXXXXXXXXXXXXXXXXXXXXXXXXXXXXXXXXXXXXXXXXXXXXXXXXXXXXXXXXXXXXXXXXXXXXXXXXXXXXXXXXXXXX",
"XXXXXXXXXXXX  X  XX  XXX  X  XX    XXXXXXXXXXXXXXX..XXXXXXXXXXXXXXXXXXXXXXXX...XXXXXXXXXXXXXXXXXXXXXXXXXXXXXXXXXXXXXXXXXXXXXXXXX",
"XXXXXXXXXXXX  X  XX  XXX  X  XX   XXXXXXXXXXXXXXXX...XXXXXXXXXXXXXXXXXXXXXX....XXXXXXXXXXXXXXXXXXXXXXXXXXXXXXXXXXXXXXXXXXXXXXXXX",
"XXXXXXXXXXXX  X  XX  XXX  X  XX  XXXXXXXXXXXXXXXXX....XXXXXXXXXXXXXXXXXXXX....XXXXXXXXXXXXXXXXXXXXXXXXXXXXXXXXXXXXXXXXXXXXXXXXXX",
"XXXXXXXXXXXX  X  XX  XXX  X  XX  XXXXXXXXXXXXXXXXXX....XXXXXXXXXXXXXXXXXX....XXXXXXXXXXXXXXXXXXXXXXXXXXXXXXXXXXXXXXXXXXXXXXXXXXX",
"XXXXXXXXXXXX  X  XX  XXX  X  XX  XXXXXXXXXXXXXXXXXXX....XXXXXXXXXXXXXXXX....XXXXXXXXXXXXXXXXXXXXXXXXXXXXXXXXXXXXXXXXXXXXXXXXXXXX",
"XXXXXXXXXXXX  X  XX  XXX  X  XX  XXXXXXXXXXXXXXXXXXXX....XXXXXXXXXXXXXX....XXXXXXXXXXXXXXXXXXXXXXXXXXXXXXXXXXXXXXXXXXXXXXXXXXXXX",
"XXXXXXXXXXXX  X  XX  XXX  X  XX  XXXXXXXXXXXXXXXXXXXXX....XXXXXXXXXXXX....XXXXXXXXXXXXXXXXXXXXXXXXXXXXXXXXXXXXXXXXXXXXXXXXXXXXXX",
"XXXXXXXXXXXX  X  XX  XXX  X  XX  XXXXXXXXXXXXXXXXXXXXXX....XXXXXXXXXX....XXXXXXXXXXXXXXXXXXXXXXXXXXXXXXXXXXXXXXXXXXXXXXXXXXXXXXX",
"XXXXXXXXXXXX  X  XX  XXX  X  XX  XXXXXXXXXXXXXXXXXXXXXXX....XXXXXXXX....XXXXXXXXXXXXXXXXXXXXXXXXXXXXXXXXXXXXXXXXXXXXXXXXXXXXXXXX",
"XXXXXXXXXXXX  X  XX  XXX  X  XX  XXXXXXXXXXXXXXXXXXXXXXXX....XXXXXX....XXXXXXXXXXXXXXXXXXXXXXXXXXXXXXXXXXXXXXXXXXXXXXXXXXXXXXXXX",
"XXXXXXXXXXXX  X  XX  XXX  X  XX  XXXXXXXXXXXXXXXXXXXXXXXXX....XXXX....XXXXXXXXXXXXXXXXXXXXXXXXXXXXXXXXXXXXXXXXXXXXXXXXXXXXXXXXXX",
"XXXXXXXXXXXX  X  XX  XXX  X  XX  XXXXXXXXXXXXXXXXXXXXXXXXXX....XX....XXXXXXXXXXXXXXXXXXXXXXXXXXXXXXXXXXXXXXXXXXXXXXXXXXXXXXXXXXX",
"XXXXXXXXXXXX  X  XX  XXX  X  XX  XXXXXXXXXXXXXXXXXXXXXXXXXXX........XXXXXXXXXXXXXXXXXXXXXXXXXXXXXXXXXXXXXXXXXXXXXXXXXXXXXXXXXXXX",
"XXXXXXXXXXXX  X  XX  XXX  X  XX  XXXXXXXXXXXXXXXXXXXXXXXXXXXX......XXXXXXXXXXXXXXXXXXXXXXXXXXXXXXXXXXXXXXXXXXXXXXXXXXXXXXXXXXXXX",
"XXXXXXXXXXXX  X  XX  XXX  X  XX  XXXXXXXXXXXXXXXXXXXXXXXXXXXXX.....XXXXXXXXXXXXXXXXXXXXXXXXXXXXXXXXXXXXXXXXXXXXXXXXXXXXXXXXXXXXX",
"XXXXXXXXXXXX  X  XX  XXX  X  XX  XXXXXXXXXXXXXXXXXXXXXXXXXXXX......XXXXXXXXXXXXXXXXXXXXXXXXXXXXXXXXXXXXXXXXXXXXXXXXXXXXXXXXXXXXX",
"XXXXXXXXXXXX  X  XX  XXX  X  XX  XXXXXXXXXXXXXXXXXXXXXXXXXXX........XXXXXXXXXXXXXXXXXXXXXXXXXXXXXXXXXXXXXXXXXXXXXXXXXXXXXXXXXXXX",
"XXXXXXXXXXXX  X  XX  XXX  X  XX  XXXXXXXXXXXXXXXXXXXXXXXXXX....XX....XXXXXXXXXXXXXXXXXXXXXXXXXXXXXXXXXXXXXXXXXXXXXXXXXXXXXXXXXXX",
"XXXXXXXXXXXX  X  XX  XXX  X  XX  XXXXXXXXXXXXXXXXXXXXXXXXX....XXXX....XXXXXXXXXXXXXXXXXXXXXXXXXXXXXXXXXXXXXXXXXXXXXXXXXXXXXXXXXX",
"XXXXXXXXXXXX  X  XX  XXX  X  XX  XXXXXXXXXXXXXXXXXXXXXXXX....XXXXXX....XXXXXXXXXXXXXXXXXXXXXXXXXXXXXXXXXXXXXXXXXXXXXXXXXXXXXXXXX",
"XXXXXXXXXXXX  X  XX  XXX  X  XX  XXXXXXXXXXXXXXXXXXXXXXX....XXXXXXXX....XXXXXXXXXXXXXXXXXXXXXXXXXXXXXXXXXXXXXXXXXXXXXXXXXXXXXXXX",
"XXXXXXXXXXXX  X  XX  XXX  X  XX  XXXXXXXXXXXXXXXXXXXXXX....XXXXXXXXXX....XXXXXXXXXXXXXXXXXXXXXXXXXXXXXXXXXXXXXXXXXXXXXXXXXXXXXXX",
"XXXXXXXXXXXX  X  XX  XXX  X  XX  XXXXXXXXXXXXXXXXXXXXX....XXXXXXXXXXXX....XXXXXXXXXXXXXXXXXXXXXXXXXXXXXXXXXXXXXXXXXXXXXXXXXXXXXX",
"XXXXXXXXXXXX  X  XX  XXX  X  XX  XXXXXXXXXXXXXXXXXXXX....XXXXXXXXXXXXXX....XXXXXXXXXXXXXXXXXXXXXXXXXXXXXXXXXXXXXXXXXXXXXXXXXXXXX",
"XXXXXXXXXXXX  X  XX  XXX  X  XX  XXXXXXXXXXXXXXXXXXX....XXXXXXXXXXXXXXXX....XXXXXXXXXXXXXXXXXXXXXXXXXXXXXXXXXXXXXXXXXXXXXXXXXXXX",
"XXXXXXXXXXXX  X  XX  XXX  X  XX  XXXXXXXXXXXXXXXXXX....XXXXXXXXXXXXXXXXXX....XXXXXXXXXXXXXXXXXXXXXXXXXXXXXXXXXXXXXXXXXXXXXXXXXXX",
"XXXXXXXXXXXX  X  XX  XXX  X  XX  XXXXXXXXXXXXXXXXX....XXXXXXXXXXXXXXXXXXXX....XXXXXXXXXXXXXXXXXXXXXXXXXXXXXXXXXXXXXXXXXXXXXXXXXX",
"XXXXXXXXXXXX  X  XX  XXX  X  XX  XXXXXXXXXXXXXXXXX...XXXXXXXXXXXXXXXXXXXXXX....XXXXXXXXXXXXXXXXXXXXXXXXXXXXXXXXXXXXXXXXXXXXXXXXX",
"XXXXXXXXXXXX  X  XX  XXX  X  XX  XXXXXXXXXXXXXXXXX..XXXXXXXXXXXXXXXXXXXXXXXX...XXXXXXXXXXXXXXXXXXXXXXXXXXXXXXXXXXXXXXXXXXXXXXXXX",
"XXXXXXXXXXXX  X  XX  XXX  X  XX  XXXXXXXXXXXXXXXXXXXXXXXXXXXXXXXXXXXXXXXXXXXXXXXXXXXXXXXXXXXXXXXXXXXXXXXXXXXXXXXXXXXXXXXXXXXXXXX",
"XXXXXXXXXXXX  X  XX  XXX  X  XX  XXXXXXXXXXXXXXXXXXXXXXXXXXXXXXXXXXXXXXXXXXXXXXXXXXXXXXXXXXXXXXXXXXXXXXXXXXXXXXXXXXXXXXXXXXXXXXX",
"XXXXXXXXXXXX  X  XX  XXX  X  XX   XXXXXXXXXXXXXXXXXXXXXXXXXXXXXXXXXXXXXXXXXXXXXXXXXXXXXXXXXXXXXXXXXXXXXXXXXXXXXXXXXXXXXXXXXXXXXX",
"XXXXXXXXXXXX  X  XX  XXX  X  XX     XXXXXXXXXXXXXXXXXXXXXXXXXXXXXXXXXXXXXXXXXXXXXXXXXXXXXXXXXXXXXXXXXXXXXXXXXXXXXXXXXXXXXXXXXXXX",
"XXXXXXXXXXXX  X  XX  XXX  X   XXX    XXXXXXXXXXXXXXXXXXXXXXXXXXXXXXXXXXXXXXXXXXXXXXXXXXXXXXXXXXXXXXXXXXXXXXXXXXXXXXXXXXXXXXXXXXX",
"XXXXXXXXXXXX  X  XX  XXX  X    XXX     XXXXXXXXXXXXXXXXXXXXXXXXXXXXXXXXXXXXXXXXXXXXXXXXXXXXXXXXXXXXXXXXXXXXXXXXXXXXXXXXXXXXXXXXX",
"XXXXXXXXXXXX  X  XX  XXX  XX     XXX     XXXXXXXXXXXXXXXXXXXXXXXXXXXXXXXXXXXXXXXXXXXXXXXXXXXXXXX  XXXXXXXXXXXXXXXXXXXXXXXXXXXXXX",
"XXXXXXXXXXXX  X  XX  XXX   XXX    XXXX    XXXXXXXXXXXXXXXXXXXXXXXXXXXXXXXXXXXXXXXXXXXXXXXXXXXX    XXXXXXXXXXXXXXXXXXXXXXXXXXXXXX",
"XXXXXXXXXXXX  X  XX  XXX    XXX     XXX     XXXXXXXXXXXXXXXXXXXXXXXXXXXXXXXXXXXXXXXXXXXXXXXXX    XXXXXXXXXXXXXXXXXXXXXXXXXXXXXXX",
"XXXXXXXXXXXX  X  XX  XXXX     XXX    XXXX    XXXXXXXXXXXXXXXXXXXXXXXXXXXXXXXXXXXXXXXXXXXXXX    XXXX   XXXXXXXXXXXXXXXXXXXXXXXXXX",
"XXXXXXXXXXXX  X  XX   XXXXX    XXXX    XXX     XXXXXXXXXXXXXXXXXXXXXXXXXXXXXXXXXXXXXXXXXX    XXXXX    XXXXXXXXXXXXXXXXXXXXXXXXXX",
"XXXXXXXXXXXX  X   X     XXXX     XXX     XXX    XXXXXXXXXXXXXXXXXXXXXXXXXXXXXXXXXXXXXXXX    XXXX    XXXX XXXXXXXXXXXXXXXXXXXXXXX",
"XXXXXXXXXXXX  X   XXX     XXXX    XXXX    XXX     XXXXXXXXXXXXXXXXXXXXXXXXXXXXXXXXXXXX    XXXX    XXXXX   XXXXXXXXXXXXXXXXXXXXXX",
"XXXXXXXXXXXX  X    XXXX    XXXX     XXX     XXX    XXXXXXXXXXXXXXXXXXXXXXXXXXXXXXXXXX   XXXXX    XXXX    XXXXXXXXXXXXXXXXXXXXXXX",
"XXXXXXXXXXXX  XX     XXX     XXXX    XXXX    XXX     XXXXXXXXXXXXXXXXXXXXXXXXXXXXXX    XXXX    XXXXX   XXXXX  XXXXXXXXXXXXXXXXXX",
"XXXXXXXXXXXX   XXX    XXXX    XXXXX    XXX     XXX    XXXXXXXXXXXXXXXXXXXXXXXXXXX    XXXXX   XXXXX    XXXX    XXXXXXXXXXXXXXXXXX",
"XXXXXXXXXXXX    XXXX    XXX     XXXX     XXX    XXXX    XXXXXXXXXXXXXXXXXXXXXXXX   XXXXX    XXXX    XXXXX   XXXXXXXXXXXXXXXXXXXX",
"XXXXXXXXXXXXX     XXX     XXX    XXXXX    XXX     XXX     XXXXXXXXXXXXXXXXXXXX    XXXX    XXXXX   XXXXX    XXXX   XXXXXXXXXXXXXX",
"XXXXXXXXXXXXXXX    XXXX    XXX     XXXX     XXX    XXXX    XXXXXXXXXXXXXXXXX    XXXXX   XXXXX    XXXX    XXXXX   XXXXXXXXXXXXXXX",
"XXXXXXXXXXXXXXXX     XXX     XXX    XXXXX    XXX     XXX     XXXXXXXXXXXXXX   XXXXX    XXXX    XXXXX   XXXXX    XXXX XXXXXXXXXXX",
"XXXXXXXXXXXXXXXXXX    XXXX    XXX     XXXX     XXX    XXXX    XXXXXXXXXXX    XXXX    XXXXX   XXXXX    XXXX    XXXXX  XXXXXXXXXXX",
"XXXXXXXXXXXXXXXXXXXX    XXX     XXX    XXXXX    XXX     XXX     XXXXXXX    XXXXX   XXXXX    XXXX    XXXXX    XXXX    XXXXXXXXXXX",
"XXXXXXXXXXXXXXXXXXXXX     XXX    XXXX    XXXX     XXX     XXX    XXXXX   XXXXX    XXXX    XXXXX    XXXX    XXXX    XXXXXXXXXXXXX",
"XXXXXXXXXXXXXXXXXXXXXXX    XXX     XXX     XXXX    XXXX    XXX     X    XXXX    XXXXX    XXXX    XXXX    XXXXX    XXXXXXXXXXXXXX",
"XXXXXXXXXXXXXXXXXXXXXXXX     XXX    XXXX    XXXX     XXX     XXX      XXXXX    XXXX    XXXX    XXXXX    XXXX    XXXXXXXXXXXXXXXX",
"XXXXXXXXXXXXXXXXXXXXXXXXXX    XXX     XXX     XXXX    XXXX    XXX     XXX    XXXX    XXXXX    XXXX    XXXX    XXXXXXXXXXXXXXXXXX",
"XXXXXXXXXXXXXXXXXXXXXXXXXXX     XXX    XXXX    XXXX     XXX                XXXXX    XXXX    XXXX    XXXXX    XXXXXXXXXXXXXXXXXXX",
"XXXXXXXXXXXXXXXXXXXXXXXXXXXXX    XXXX    XXX     XXXX    XXXX     XXX     XXXX    XXXX    XXXXX    XXXX    XXXXXXXXXXXXXXXXXXXXX",
"XXXXXXXXXXXXXXXXXXXXXXXXXXXXXX     XXX     XXX    XXXXX    X       X       X    XXXXX    XXXX    XXXX    XXXXXXXXXXXXXXXXXXXXXXX",
"XXXXXXXXXXXXXXXXXXXXXXXXXXXXXXXX    XXXX    XXX     XXXX      XX      XX       XXXX    XXXX    XXXXX    XXXXXXXXXXXXXXXXXXXXXXXX",
"XXXXXXXXXXXXXXXXXXXXXXXXXXXXXXXXX     XXX     XXX    XXX      XXX     XXX     XXX    XXXXX    XXXX    XXXXXXXXXXXXXXXXXXXXXXXXXX",
"XXXXXXXXXXXXXXXXXXXXXXXXXXXXXXXXXXX    XXXX    XXX                             X    XXXX    XXXX    XXXXXXXXXXXXXXXXXXXXXXXXXXXX",
"XXXXXXXXXXXXXXXXXXXXXXXXXXXXXXXXXXXXX    XXX     XXX     XXXX     XX      XX      XXXX    XXXXX    XXXXXXXXXXXXXXXXXXXXXXXXXXXXX",
"XXXXXXXXXXXXXXXXXXXXXXXXXXXXXXXXXXXXXX     XXX    XX      XX       X      XX      XXX    XXXX    XXXXXXXXXXXXXXXXXXXXXXXXXXXXXXX",
"XXXXXXXXXXXXXXXXXXXXXXXXXXXXXXXXXXXXXXXX    XXX      XX       XX      XX               XXXX    XXXXXXXXXXXXXXXXXXXXXXXXXXXXXXXXX",
"XXXXXXXXXXXXXXXXXXXXXXXXXXXXXXXXXXXXXXXXX     XX     XXX     XXXX     XXX     XXX     XXXX    XXXXXXXXXXXXXXXXXXXXXXXXXXXXXXXXXX",
"XXXXXXXXXXXXXXXXXXXXXXXXXXXXXXXXXXXXXXXXXXX                                    X       X    XXXXXXXXXXXXXXXXXXXXXXXXXXXXXXXXXXXX",
"XXXXXXXXXXXXXXXXXXXXXXXXXXXXXXXXXXXXXXXXXXXX     XXX     XXX     XXX      XX      XX      XXXXXXXXXXXXXXXXXXXXXXXXXXXXXXXXXXXXXX",
"XXXXXXXXXXXXXXXXXXXXXXXXXXXXXXXXXXXXXXXXXXXX      XX      XX      XX      XXX     XXX    XXXXXXXXXXXXXXXXXXXXXXXXXXXXXXXXXXXXXXX",
"XXXXXXXXXXXXXXXXXXXXXXXXXXXXXXXXXXXXXXXXXXXXXXX       X       X       X                XXXXXXXXXXXXXXXXXXXXXXXXXXXXXXXXXXXXXXXXX",
"XXXXXXXXXXXXXXXXXXXXXXXXXXXXXXXXXXXXXXXXXXXXXXXX     XXX     XXX     XXXX     XXX    XXXXXXXXXXXXXXXXXXXXXXXXXXXXXXXXXXXXXXXXXXX",
"XXXXXXXXXXXXXXXXXXXXXXXXXXXXXXXXXXXXXXXXXXXXXXXX                      XX       X    XXXXXXXXXXXXXXXXXXXXXXXXXXXXXXXXXXXXXXXXXXXX",
"XXXXXXXXXXXXXXXXXXXXXXXXXXXXXXXXXXXXXXXXXXXXXXXXXXXX     XXX     XXX      XX      XXXXXXXXXXXXXXXXXXXXXXXXXXXXXXXXXXXXXXXXXXXXXX",
"XXXXXXXXXXXXXXXXXXXXXXXXXXXXXXXXXXXXXXXXXXXXXXXXXXXX      XX      XX      XXX   XXXXXXXXXXXXXXXXXXXXXXXXXXXXXXXXXXXXXXXXXXXXXXXX",
"XXXXXXXXXXXXXXXXXXXXXXXXXXXXXXXXXXXXXXXXXXXXXXXXXXXX  X       X                XXXXXXXXXXXXXXXXXXXXXXXXXXXXXXXXXXXXXXXXXXXXXXXXX",
"XXXXXXXXXXXXXXXXXXXXXXXXXXXXXXXXXXXXXXXXXXXXXXXXXXXXXXXX     XXX     XXX     XXXXXXXXXXXXXXXXXXXXXXXXXXXXXXXXXXXXXXXXXXXXXXXXXXX",
"XXXXXXXXXXXXXXXXXXXXXXXXXXXXXXXXXXXXXXXXXXXXXXXXXXXXXXXX              XX   XXXXXXXXXXXXXXXXXXXXXXXXXXXXXXXXXXXXXXXXXXXXXXXXXXXXX",
"XXXXXXXXXXXXXXXXXXXXXXXXXXXXXXXXXXXXXXXXXXXXXXXXXXXXXXXXXXXX     XX       XXXXXXXXXXXXXXXXXXXXXXXXXXXXXXXXXXXXXXXXXXXXXXXXXXXXXX",
"XXXXXXXXXXXXXXXXXXXXXXXXXXXXXXXXXXXXXXXXXXXXXXXXXXXXXXXXXXXX     XXX    XXXXXXXXXXXXXXXXXXXXXXXXXXXXXXXXXXXXXXXXXXXXXXXXXXXXXXXX",
"XXXXXXXXXXXXXXXXXXXXXXXXXXXXXXXXXXXXXXXXXXXXXXXXXXXXXXXXXXXX  X        XXXXXXXXXXXXXXXXXXXXXXXXXXXXXXXXXXXXXXXXXXXXXXXXXXXXXXXXX",
"XXXXXXXXXXXXXXXXXXXXXXXXXXXXXXXXXXXXXXXXXXXXXXXXXXXXXXXXXXXXXXXX     XXXXXXXXXXXXXXXXXXXXXXXXXXXXXXXXXXXXXXXXXXXXXXXXXXXXXXXXXXX",
"XXXXXXXXXXXXXXXXXXXXXXXXXXXXXXXXXXXXXXXXXXXXXXXXXXXXXXXXXXXXXXXX   XXXXXXXXXXXXXXXXXXXXXXXXXXXXXXXXXXXXXXXXXXXXXXXXXXXXXXXXXXXXX"
};
