/* XPM */
static char *cdda548a98884e4de6eab61efe676333[] = {
/* columns rows colors chars-per-pixel */
"64 64 23 1 ",
"  c blue",
". c #272DFF",
"X c #2930FF",
"o c #2E35FF",
"O c #3A43FF",
"+ c #5498FF",
"@ c #5598FF",
"# c #5499FF",
"$ c #5599FF",
"% c #5699FF",
"& c #559AFF",
"* c #A7C1FF",
"= c #A9C3FF",
"- c #ABC5FF",
"; c #ABC6FF",
": c #D5F6FF",
"> c #D6F7FF",
", c #DCFEFF",
"< c #DEFFFF",
"1 c #DFFFFF",
"2 c #E6FFFF",
"3 c #E7FFFF",
"4 c None",
/* pixels */
"4444444444444444444444444444444$$4444444444444444444444444444444",
"44444444444444444444444444444$$$$$$44444444444444444444444444444",
"444444444444444444444444444$$$$$$$$$$444444444444444444444444444",
"4444444444444444444444444$$$$$$$$$$$$$$4444444444444444444444444",
"44444444444444444444444$$$$$$$$$$$$$$$$$$44444444444444444444444",
"444444444444444444444$$$$$$$$$$$$$$$$$$$$$$444444444444444444444",
"4444444444444444444$$$$$$$$$$$&&$$$$$$$$$$$$$4444444444444444444",
"44444444444444444$$$$$$$$$$$$$$$$$$$$$$$$$$$$$$44444444444444444",
"444444444444444$$$$$$$$$$$$$$$$$$$$$$$$$$$$$$$$$$444444444444444",
"4444444444444$$$$$$$$$$$$$$$$$$$$$$$$$$$$$$$$$$$$$$4444444444444",
"44444444444$$$$$$$$$$$$$$$$$$$$$$$$$$$$$$$$$$$$$$$$$$44444444444",
"444444444$$$$$$$$$$$$$$$$$$$$$$44$$$$$$$$$$$$$$$$$$$$$$444444444",
"4444444$$$$$$$$$$$$&$$$$$$$$$444444$$$$$$$$$$$$$$$$$$$$$$4444444",
"44444$$$$$$$$$$$$$$$$$$$$$$4444444444$$$$$$$$$$$$$$$$$$$$$$44444",
"444$$$$$$$$$$$$$$$$$$$$$$44444444444444$$$$$$$$$$$$$$$$$$$$$$444",
"4$$$$$$$$$$$$$$$$$$$$$$444444444444444444$$$$$$$$$$$$$$$$$$$$$$4",
"$$$$$$$$$$$$$$$$$$$$$4444444444444444444444$$$$$$$$$$$$$$$$$$$$$",
"$$$$$$$$$$$$$$$$$$$44444444444444444444444444$$$$$$$$$$$$$$$$$$$",
"$$$$$$$$$$$$$$$$$444444444444444444444444444444$$$$$$$$$$$$$$$$$",
"$$$$$$$$$$$$$$$444444444444444>>>>444444444444444$$$$$$$$$$$$$$$",
"$$$$$$$$$$$$$444444444444444::::>:::444444444444444$$$$$$$$$$$$$",
"$$$$$$$$$$$444444444444444>>::::::::::444444444444444$$$$$$$$$$$",
"$$$$$$$$$$$4444444444444:::::::::::::::>4444444444444$$$$$$$$$$$",
"$$$$$$$$@@$44444444444>>:::::::::::::::>>>44444444444$$$$$$$$$$$",
"$$$$$$$$$$$444444444::::::::::::::::::::>:::444444444$$$$$$$$$$$",
"$$$$@@@@@@$4444444>>::::::::::::::::::::>>:<=O4444444$$$$$$$$$$$",
"$$$$$$$@$$$4444444>:::::::::::::::::::::><*X  4444444$$$$$$$$$$$",
"$@$$@$$$$@$4444444:::::::::::::::::::::,;.    4444444$$$$$$$$$$$",
"$$$$$$@@$$$4444444::::::::::::::::>>:<=o      4444444$$$$$$$$$$$",
"$$$$@@$$$$$4444444:::::::::::::::>><*.        4444444$$$$$$$$$$$",
"$@$$$$$$$$@4444444>::::::::::::::,;.          4444444$$$$$$$$$$$",
"$$$@@@@$$$$4444444>>:::::::::::>=o            4444444$$$$$$$$$$$",
"$$$$$$$@@@$4444444::::::::::::>2              4444444$$$$$$$$$$$",
"$@$$$$$$$$$4444444:::::::::::::2              4444444$$$$$$$$$$$",
"$$$++$$@@@$4444444:::::::::::::2              4444444$$$$$$$$$$$",
"@$$$$$$$$$$4444444:::::::::::::2              4444444$$$$$$$$$$$",
"$$@@@+$$$++4444444>>:::::::::::2              4444444$$$$$$$$$$$",
"+$+$$$$$$$$4444444:>:::::::::::2              4444444$$$$$$$$$$$",
"$$$$@$@@$$$4444444:::::::::::::2              4444444$$$$$$$$$$$",
"++$$$$$$$@$444444444:::::::::::2            444444444$$$$$$$$$$$",
"$++++$+$$$$44444444444>>>::::::2          44444444444$$$$$$$$$$$",
"$$&+&$$$@$$4444444444444>>:::::2        4444444444444$$$$$$$$$$$",
"$$+++++$$$$444444444444444>>:::2      444444444444444$$$$$$$$$$$",
"$++$$+$+$$$$$444444444444444:::2    444444444444444$$$$$$$$$$$$$",
"$$$$$$+&$$$$$$$444444444444444>2  444444444444444$$$$$+$$$$$$$$$",
"$$+$$$$$$$$$$$$$$444444444444444444444444444444$$$$$$$$+$$$$$$$$",
"$+$$$$$$$$$$$$$$$$$44444444444444444444444444$$$$$$$$$$$$@$+$$$$",
"$$$$$$$$$$$$$$$$$$$$$4444444444444444444444$$$$$$$$$$$$$$$$$@$$$",
"4$$$$$$$$$$$$$$$$$$$$$$444444444444444444@$$$$$$$$$$$$$$$$$$$$44",
"444$$$$$$$$$$$$$$$$$$$$$$44444444444444$$$@$$$$$$$$$$$$$$$$$$444",
"44444$$$$$$$$$$$$$$$$$$$$$$4444444444$$$$$$@$$$$@$$$$$$$$$$44444",
"4444444$$$$$$$$$$$$$$$$$$$$$$444444$$$$$$$$$@$$$$$$$$$$$$4444444",
"444444444$$$$$$$$$$$$$$$$$$$$$$44$$$$$$$$$$$$$$$$$$$$$$444444444",
"44444444444$$$$$$$$$$$$$$$$$$$$$$$$$$$$$$$$$$$$$$$$$$44444444444",
"4444444444444$$$$$$$$$$$$$$$$$$$$$$$$$$$$$$$$$$$$$$4444444444444",
"444444444444444$$$$$$$$$$$$$$$$$$$$$$$$$$$$$$$$$$444444444444444",
"44444444444444444$$$$$$$$$$$$$$$$$$$$$$$$$$$$$$44444444444444444",
"4444444444444444444$$$$$$$$$$$$$$$$$$$$$$$$$$4444444444444444444",
"444444444444444444444$$$$$$$$$$$$$$$$$$$$$$444444444444444444444",
"44444444444444444444444$$$$$$$$$$$$$$$$$$44444444444444444444444",
"4444444444444444444444444$$$$$$$$$$$$$$4444444444444444444444444",
"444444444444444444444444444$$$$$$$$$$444444444444444444444444444",
"44444444444444444444444444444$$$$$$44444444444444444444444444444",
"4444444444444444444444444444444$$4444444444444444444444444444444"
};
